# xmcd
#
# Track frame offsets:
#	150
#	10155
#	23237
#	34742
#	48457
#	61965
#	75460
#	85390
#	97510
#	110625
#	123762
#	134722
#	147137
#	158795
#	175500
#	193785
#	204672
#	217077
#
# Disc length: 3050 seconds
#
# Revision: 2
# Processed by: cddbd v1.4PL0 Copyright (c) Steve Scherf et al.
# Submitted via: EasyCDDAExtractor 5.0.6
#
DISCID=f10be812
DTITLE=HOOKER JOHN LEE_BEST_CD 1 - This is hip - the best of... (disc1)
DYEAR=1900
DGENRE=Blues
TTITLE0=Dimples
TTITLE1=Unfriendly woman
TTITLE2=Wheel and deal
TTITLE3=Time is marchin'
TTITLE4=Baby Lee
TTITLE5=Every night
TTITLE6=Stop talking
TTITLE7=Everybody rockin'
TTITLE8=I see you when you're weak
TTITLE9=I'm so excited
TTITLE10=Little fine woman
TTITLE11=You can lead me baby
TTITLE12=I love you honey
TTITLE13=Mama, you got a daughter
TTITLE14=House rent boogie
TTITLE15=Maudie
TTITLE16=I'm in the mood
TTITLE17=Boogie chillun
EXTD=
EXTT0=
EXTT1=
EXTT2=
EXTT3=
EXTT4=
EXTT5=
EXTT6=
EXTT7=
EXTT8=
EXTT9=
EXTT10=
EXTT11=
EXTT12=
EXTT13=
EXTT14=
EXTT15=
EXTT16=
EXTT17=
PLAYORDER=
